<mxfile host="65bd71144e">
    <diagram id="o3JXSGFXpSsYP4TN6aL9" name="Page-1">
        <mxGraphModel dx="1959" dy="551" grid="1" gridSize="10" guides="1" tooltips="1" connect="1" arrows="1" fold="1" page="1" pageScale="1" pageWidth="900" pageHeight="500" math="0" shadow="0">
            <root>
                <mxCell id="0"/>
                <mxCell id="1" parent="0"/>
                <mxCell id="2" value="Ifood - Para Parceiros" style="strokeWidth=1;shadow=0;dashed=0;align=center;html=1;shape=mxgraph.mockup.containers.window;align=left;verticalAlign=top;spacingLeft=8;strokeColor2=#008cff;strokeColor3=#c4c4c4;fontColor=#666666;mainText=;fontSize=17;labelBackgroundColor=none;" parent="1" vertex="1">
                    <mxGeometry x="-170" y="10" width="530" height="430" as="geometry"/>
                </mxCell>
                <mxCell id="6" value="" style="strokeWidth=1;shadow=0;dashed=0;align=center;html=1;shape=mxgraph.mockup.forms.rrect;rSize=0;strokeColor=#999999;fillColor=#ffffff;" parent="1" vertex="1">
                    <mxGeometry x="120" y="100" width="200" height="300" as="geometry"/>
                </mxCell>
                <mxCell id="7" value="Cadastre sua loja" style="strokeWidth=1;shadow=0;dashed=0;align=center;html=1;shape=mxgraph.mockup.forms.anchor;fontSize=12;fontColor=#666666;align=left;resizeWidth=1;spacingLeft=0;" parent="6" vertex="1">
                    <mxGeometry width="100" height="20" relative="1" as="geometry">
                        <mxPoint x="10" y="10" as="offset"/>
                    </mxGeometry>
                </mxCell>
                <mxCell id="8" value="" style="shape=line;strokeColor=#ddeeff;strokeWidth=2;html=1;resizeWidth=1;" parent="6" vertex="1">
                    <mxGeometry width="180" height="10" relative="1" as="geometry">
                        <mxPoint x="10" y="30" as="offset"/>
                    </mxGeometry>
                </mxCell>
                <mxCell id="9" value="Nome Completo" style="strokeWidth=1;shadow=0;dashed=0;align=center;html=1;shape=mxgraph.mockup.forms.anchor;fontSize=12;fontColor=#666666;align=left;resizeWidth=1;spacingLeft=0;" parent="6" vertex="1">
                    <mxGeometry width="100" height="20" relative="1" as="geometry">
                        <mxPoint x="10" y="40" as="offset"/>
                    </mxGeometry>
                </mxCell>
                <mxCell id="10" value="johndoe" style="strokeWidth=1;shadow=0;dashed=0;align=center;html=1;shape=mxgraph.mockup.forms.rrect;rSize=0;strokeColor=#999999;fontColor=#666666;align=left;spacingLeft=5;resizeWidth=1;" parent="6" vertex="1">
                    <mxGeometry width="150" height="25" relative="1" as="geometry">
                        <mxPoint x="10" y="60" as="offset"/>
                    </mxGeometry>
                </mxCell>
                <mxCell id="11" value="E-mail" style="strokeWidth=1;shadow=0;dashed=0;align=center;html=1;shape=mxgraph.mockup.forms.anchor;fontSize=12;fontColor=#666666;align=left;resizeWidth=1;spacingLeft=0;" parent="6" vertex="1">
                    <mxGeometry width="100" height="20" relative="1" as="geometry">
                        <mxPoint x="10" y="95" as="offset"/>
                    </mxGeometry>
                </mxCell>
                <mxCell id="12" value="example@example.com" style="strokeWidth=1;shadow=0;dashed=0;align=center;html=1;shape=mxgraph.mockup.forms.rrect;rSize=0;strokeColor=#999999;fontColor=#666666;align=left;spacingLeft=5;resizeWidth=1;" parent="6" vertex="1">
                    <mxGeometry width="150" height="25" relative="1" as="geometry">
                        <mxPoint x="10" y="115" as="offset"/>
                    </mxGeometry>
                </mxCell>
                <mxCell id="15" value="" style="shape=line;strokeColor=#ddeeff;strokeWidth=2;html=1;resizeWidth=1;" parent="6" vertex="1">
                    <mxGeometry y="1" width="180" height="10" relative="1" as="geometry">
                        <mxPoint x="10" y="-90" as="offset"/>
                    </mxGeometry>
                </mxCell>
                <mxCell id="17" value="Cadastrar agora" style="strokeWidth=1;shadow=0;dashed=0;align=center;html=1;shape=mxgraph.mockup.forms.rrect;rSize=5;strokeColor=none;fontColor=#ffffff;fillColor=#66bbff;fontSize=12;fontStyle=1;" parent="6" vertex="1">
                    <mxGeometry y="1" width="140" height="39" relative="1" as="geometry">
                        <mxPoint x="30" y="-60" as="offset"/>
                    </mxGeometry>
                </mxCell>
                <mxCell id="19" value="Celular (com DDD)" style="strokeWidth=1;shadow=0;dashed=0;align=center;html=1;shape=mxgraph.mockup.forms.anchor;fontSize=12;fontColor=#666666;align=left;resizeWidth=1;spacingLeft=0;" parent="6" vertex="1">
                    <mxGeometry x="10" y="150" width="100" height="20" as="geometry"/>
                </mxCell>
                <mxCell id="20" value="(00) 00000-0000" style="strokeWidth=1;shadow=0;dashed=0;align=center;html=1;shape=mxgraph.mockup.forms.rrect;rSize=0;strokeColor=#999999;fontColor=#666666;align=left;spacingLeft=5;resizeWidth=1;" parent="6" vertex="1">
                    <mxGeometry x="10" y="170" width="150" height="25" as="geometry"/>
                </mxCell>
                <mxCell id="18" value="" style="verticalLabelPosition=bottom;shadow=0;dashed=0;align=center;html=1;verticalAlign=top;strokeWidth=1;shape=mxgraph.mockup.navigation.scrollBar;strokeColor=#999999;barPos=20;fillColor2=#99ddff;strokeColor2=none;direction=north;" parent="1" vertex="1">
                    <mxGeometry x="340" y="40" width="20" height="400" as="geometry"/>
                </mxCell>
                <mxCell id="26" value="" style="rounded=0;whiteSpace=wrap;html=1;fontSize=12;" parent="1" vertex="1">
                    <mxGeometry x="-170" y="40" width="510" height="30" as="geometry"/>
                </mxCell>
                <mxCell id="27" value="" style="verticalLabelPosition=bottom;shadow=0;dashed=0;align=center;html=1;verticalAlign=top;strokeWidth=1;shape=mxgraph.mockup.graphics.simpleIcon;strokeColor=#999999;fontSize=12;" parent="1" vertex="1">
                    <mxGeometry x="-150" y="45" width="60" height="20" as="geometry"/>
                </mxCell>
                <mxCell id="28" value="" style="strokeWidth=1;shadow=0;dashed=0;align=center;html=1;shape=mxgraph.mockup.forms.rrect;rSize=0;strokeColor=#999999;fontSize=9;" parent="1" vertex="1">
                    <mxGeometry x="130" y="40" width="210" height="30" as="geometry"/>
                </mxCell>
                <mxCell id="29" value="&lt;font style=&quot;font-size: 12px&quot;&gt;Como funciona&lt;/font&gt;" style="strokeColor=inherit;fillColor=inherit;gradientColor=inherit;strokeWidth=1;shadow=0;dashed=0;align=center;html=1;shape=mxgraph.mockup.forms.rrect;rSize=0;fontSize=17;fontColor=#666666;" parent="28" vertex="1">
                    <mxGeometry width="103.96039603960396" height="30" as="geometry"/>
                </mxCell>
                <mxCell id="30" value="&lt;font style=&quot;font-size: 12px&quot;&gt;Ajuda&lt;/font&gt;" style="strokeColor=inherit;fillColor=inherit;gradientColor=inherit;strokeWidth=1;shadow=0;dashed=0;align=center;html=1;shape=mxgraph.mockup.forms.rrect;rSize=0;fontSize=17;fontColor=#666666;" parent="28" vertex="1">
                    <mxGeometry x="103.95841584158417" width="50" height="30" as="geometry"/>
                </mxCell>
                <mxCell id="31" value="&lt;font style=&quot;font-size: 12px&quot;&gt;Portal&lt;/font&gt;" style="strokeColor=inherit;fillColor=inherit;gradientColor=inherit;strokeWidth=1;shadow=0;dashed=0;align=center;html=1;shape=mxgraph.mockup.forms.rrect;rSize=0;fontSize=17;fontColor=#666666;" parent="28" vertex="1">
                    <mxGeometry x="153.9549504950495" width="53.96584158415841" height="30" as="geometry"/>
                </mxCell>
                <mxCell id="37" value="Ifood - Para Parceiros" style="strokeWidth=1;shadow=0;dashed=0;align=center;html=1;shape=mxgraph.mockup.containers.window;align=left;verticalAlign=top;spacingLeft=8;strokeColor2=#008cff;strokeColor3=#c4c4c4;fontColor=#666666;mainText=;fontSize=17;labelBackgroundColor=none;" parent="1" vertex="1">
                    <mxGeometry x="-170" y="460" width="530" height="450" as="geometry"/>
                </mxCell>
                <mxCell id="49" value="" style="verticalLabelPosition=bottom;shadow=0;dashed=0;align=center;html=1;verticalAlign=top;strokeWidth=1;shape=mxgraph.mockup.navigation.scrollBar;strokeColor=#999999;barPos=20;fillColor2=#99ddff;strokeColor2=none;direction=north;" parent="1" vertex="1">
                    <mxGeometry x="340" y="490" width="20" height="420" as="geometry"/>
                </mxCell>
                <mxCell id="50" value="" style="rounded=0;whiteSpace=wrap;html=1;fontSize=12;" parent="1" vertex="1">
                    <mxGeometry x="-170" y="490" width="510" height="30" as="geometry"/>
                </mxCell>
                <mxCell id="51" value="" style="verticalLabelPosition=bottom;shadow=0;dashed=0;align=center;html=1;verticalAlign=top;strokeWidth=1;shape=mxgraph.mockup.graphics.simpleIcon;strokeColor=#999999;fontSize=12;" parent="1" vertex="1">
                    <mxGeometry x="65" y="495" width="60" height="20" as="geometry"/>
                </mxCell>
                <mxCell id="63" value="EndereÃ§o da loja" style="strokeWidth=1;shadow=0;dashed=0;align=center;html=1;shape=mxgraph.mockup.forms.anchor;fontSize=12;fontColor=#666666;align=left;resizeWidth=1;spacingLeft=0;" parent="1" vertex="1">
                    <mxGeometry x="45" y="555.5" width="100" height="20" as="geometry"/>
                </mxCell>
                <mxCell id="64" value="" style="shape=line;strokeColor=#ddeeff;strokeWidth=2;html=1;resizeWidth=1;" parent="1" vertex="1">
                    <mxGeometry x="5" y="575.5" width="180" height="10" as="geometry"/>
                </mxCell>
                <mxCell id="65" value="CEP" style="strokeWidth=1;shadow=0;dashed=0;align=center;html=1;shape=mxgraph.mockup.forms.anchor;fontSize=12;fontColor=#666666;align=left;resizeWidth=1;spacingLeft=0;" parent="1" vertex="1">
                    <mxGeometry x="-60" y="595.5" width="100" height="20" as="geometry"/>
                </mxCell>
                <mxCell id="66" value="00000-000" style="strokeWidth=1;shadow=0;dashed=0;align=center;html=1;shape=mxgraph.mockup.forms.rrect;rSize=0;strokeColor=#999999;fontColor=#666666;align=left;spacingLeft=5;resizeWidth=1;" parent="1" vertex="1">
                    <mxGeometry x="-60" y="615.5" width="150" height="25" as="geometry"/>
                </mxCell>
                <mxCell id="67" value="Estado" style="strokeWidth=1;shadow=0;dashed=0;align=center;html=1;shape=mxgraph.mockup.forms.anchor;fontSize=12;fontColor=#666666;align=left;resizeWidth=1;spacingLeft=0;" parent="1" vertex="1">
                    <mxGeometry x="-60" y="640.5" width="100" height="20" as="geometry"/>
                </mxCell>
                <mxCell id="68" value="SÃ£o Paulo" style="strokeWidth=1;shadow=0;dashed=0;align=center;html=1;shape=mxgraph.mockup.forms.rrect;rSize=0;strokeColor=#999999;fontColor=#666666;align=left;spacingLeft=5;resizeWidth=1;" parent="1" vertex="1">
                    <mxGeometry x="-60" y="660.5" width="150" height="25" as="geometry"/>
                </mxCell>
                <mxCell id="69" value="" style="shape=line;strokeColor=#ddeeff;strokeWidth=2;html=1;resizeWidth=1;" parent="1" vertex="1">
                    <mxGeometry x="5" y="830" width="180" height="10" as="geometry"/>
                </mxCell>
                <mxCell id="70" value="Continuar" style="strokeWidth=1;shadow=0;dashed=0;align=center;html=1;shape=mxgraph.mockup.forms.rrect;rSize=5;strokeColor=none;fontColor=#ffffff;fillColor=#66bbff;fontSize=12;fontStyle=1;" parent="1" vertex="1">
                    <mxGeometry x="25" y="851" width="140" height="39" as="geometry"/>
                </mxCell>
                <mxCell id="71" value="Bairro" style="strokeWidth=1;shadow=0;dashed=0;align=center;html=1;shape=mxgraph.mockup.forms.anchor;fontSize=12;fontColor=#666666;align=left;resizeWidth=1;spacingLeft=0;" parent="1" vertex="1">
                    <mxGeometry x="-60" y="685.5" width="100" height="20" as="geometry"/>
                </mxCell>
                <mxCell id="72" value="Bairro" style="strokeWidth=1;shadow=0;dashed=0;align=center;html=1;shape=mxgraph.mockup.forms.rrect;rSize=0;strokeColor=#999999;fontColor=#666666;align=left;spacingLeft=5;resizeWidth=1;" parent="1" vertex="1">
                    <mxGeometry x="-60" y="705.5" width="150" height="25" as="geometry"/>
                </mxCell>
                <mxCell id="74" value="Cidade" style="strokeWidth=1;shadow=0;dashed=0;align=center;html=1;shape=mxgraph.mockup.forms.anchor;fontSize=12;fontColor=#666666;align=left;resizeWidth=1;spacingLeft=0;" parent="1" vertex="1">
                    <mxGeometry x="100" y="640.5" width="100" height="20" as="geometry"/>
                </mxCell>
                <mxCell id="75" value="SÃ£o Paulo" style="strokeWidth=1;shadow=0;dashed=0;align=center;html=1;shape=mxgraph.mockup.forms.rrect;rSize=0;strokeColor=#999999;fontColor=#666666;align=left;spacingLeft=5;resizeWidth=1;" parent="1" vertex="1">
                    <mxGeometry x="100" y="660.5" width="150" height="25" as="geometry"/>
                </mxCell>
                <mxCell id="76" value="EndereÃ§o" style="strokeWidth=1;shadow=0;dashed=0;align=center;html=1;shape=mxgraph.mockup.forms.anchor;fontSize=12;fontColor=#666666;align=left;resizeWidth=1;spacingLeft=0;" parent="1" vertex="1">
                    <mxGeometry x="-60" y="730.5" width="100" height="20" as="geometry"/>
                </mxCell>
                <mxCell id="77" value="Rua etc" style="strokeWidth=1;shadow=0;dashed=0;align=center;html=1;shape=mxgraph.mockup.forms.rrect;rSize=0;strokeColor=#999999;fontColor=#666666;align=left;spacingLeft=5;resizeWidth=1;" parent="1" vertex="1">
                    <mxGeometry x="-60" y="750.5" width="150" height="25" as="geometry"/>
                </mxCell>
                <mxCell id="78" value="NÃºmero" style="strokeWidth=1;shadow=0;dashed=0;align=center;html=1;shape=mxgraph.mockup.forms.anchor;fontSize=12;fontColor=#666666;align=left;resizeWidth=1;spacingLeft=0;" parent="1" vertex="1">
                    <mxGeometry x="-60" y="775.5" width="100" height="20" as="geometry"/>
                </mxCell>
                <mxCell id="79" value="SÃ£o Paulo" style="strokeWidth=1;shadow=0;dashed=0;align=center;html=1;shape=mxgraph.mockup.forms.rrect;rSize=0;strokeColor=#999999;fontColor=#666666;align=left;spacingLeft=5;resizeWidth=1;" parent="1" vertex="1">
                    <mxGeometry x="-60" y="795.5" width="150" height="25" as="geometry"/>
                </mxCell>
                <mxCell id="80" value="Complemento" style="strokeWidth=1;shadow=0;dashed=0;align=center;html=1;shape=mxgraph.mockup.forms.anchor;fontSize=12;fontColor=#666666;align=left;resizeWidth=1;spacingLeft=0;" parent="1" vertex="1">
                    <mxGeometry x="100" y="775.5" width="100" height="20" as="geometry"/>
                </mxCell>
                <mxCell id="81" value="SÃ£o Paulo" style="strokeWidth=1;shadow=0;dashed=0;align=center;html=1;shape=mxgraph.mockup.forms.rrect;rSize=0;strokeColor=#999999;fontColor=#666666;align=left;spacingLeft=5;resizeWidth=1;" parent="1" vertex="1">
                    <mxGeometry x="100" y="795.5" width="150" height="25" as="geometry"/>
                </mxCell>
                <mxCell id="83" value="" style="endArrow=classic;html=1;fontSize=9;" parent="1" edge="1">
                    <mxGeometry width="50" height="50" relative="1" as="geometry">
                        <mxPoint x="-120" y="505" as="sourcePoint"/>
                        <mxPoint x="-150" y="504.5" as="targetPoint"/>
                    </mxGeometry>
                </mxCell>
                <mxCell id="84" value="Ifood - Portal do Parceiro" style="strokeWidth=1;shadow=0;dashed=0;align=center;html=1;shape=mxgraph.mockup.containers.window;align=left;verticalAlign=top;spacingLeft=8;strokeColor2=#008cff;strokeColor3=#c4c4c4;fontColor=#666666;mainText=;fontSize=17;labelBackgroundColor=none;" parent="1" vertex="1">
                    <mxGeometry x="380" y="10" width="530" height="430" as="geometry"/>
                </mxCell>
                <mxCell id="85" value="" style="strokeWidth=1;shadow=0;dashed=0;align=center;html=1;shape=mxgraph.mockup.forms.rrect;rSize=0;strokeColor=#999999;fillColor=#ffffff;" parent="1" vertex="1">
                    <mxGeometry x="630" y="40" width="260" height="400" as="geometry"/>
                </mxCell>
                <mxCell id="86" value="Portal do Parceiro" style="strokeWidth=1;shadow=0;dashed=0;align=center;html=1;shape=mxgraph.mockup.forms.anchor;fontSize=12;fontColor=#666666;align=left;resizeWidth=1;spacingLeft=0;" parent="85" vertex="1">
                    <mxGeometry width="130.00000000000003" height="20" relative="1" as="geometry">
                        <mxPoint x="13" y="100" as="offset"/>
                    </mxGeometry>
                </mxCell>
                <mxCell id="87" value="" style="shape=line;strokeColor=#ddeeff;strokeWidth=2;html=1;resizeWidth=1;" parent="85" vertex="1">
                    <mxGeometry width="234.00000000000006" height="10" relative="1" as="geometry">
                        <mxPoint x="13" y="120" as="offset"/>
                    </mxGeometry>
                </mxCell>
                <mxCell id="88" value="E-mail" style="strokeWidth=1;shadow=0;dashed=0;align=center;html=1;shape=mxgraph.mockup.forms.anchor;fontSize=12;fontColor=#666666;align=left;resizeWidth=1;spacingLeft=0;" parent="85" vertex="1">
                    <mxGeometry width="130.00000000000003" height="20" relative="1" as="geometry">
                        <mxPoint x="13" y="130" as="offset"/>
                    </mxGeometry>
                </mxCell>
                <mxCell id="89" value="example@example.com" style="strokeWidth=1;shadow=0;dashed=0;align=center;html=1;shape=mxgraph.mockup.forms.rrect;rSize=0;strokeColor=#999999;fontColor=#666666;align=left;spacingLeft=5;resizeWidth=1;" parent="85" vertex="1">
                    <mxGeometry width="195" height="25" relative="1" as="geometry">
                        <mxPoint x="13" y="150" as="offset"/>
                    </mxGeometry>
                </mxCell>
                <mxCell id="90" value="Senha" style="strokeWidth=1;shadow=0;dashed=0;align=center;html=1;shape=mxgraph.mockup.forms.anchor;fontSize=12;fontColor=#666666;align=left;resizeWidth=1;spacingLeft=0;" parent="85" vertex="1">
                    <mxGeometry width="130.00000000000003" height="20" relative="1" as="geometry">
                        <mxPoint x="13" y="185" as="offset"/>
                    </mxGeometry>
                </mxCell>
                <mxCell id="91" value="example@example.com" style="strokeWidth=1;shadow=0;dashed=0;align=center;html=1;shape=mxgraph.mockup.forms.rrect;rSize=0;strokeColor=#999999;fontColor=#666666;align=left;spacingLeft=5;resizeWidth=1;" parent="85" vertex="1">
                    <mxGeometry width="195" height="25" relative="1" as="geometry">
                        <mxPoint x="13" y="205" as="offset"/>
                    </mxGeometry>
                </mxCell>
                <mxCell id="92" value="" style="shape=line;strokeColor=#ddeeff;strokeWidth=2;html=1;resizeWidth=1;" parent="85" vertex="1">
                    <mxGeometry y="1" width="234.00000000000006" height="10" relative="1" as="geometry">
                        <mxPoint x="10" y="-120" as="offset"/>
                    </mxGeometry>
                </mxCell>
                <mxCell id="93" value="AvanÃ§ar" style="strokeWidth=1;shadow=0;dashed=0;align=center;html=1;shape=mxgraph.mockup.forms.rrect;rSize=5;strokeColor=none;fontColor=#ffffff;fillColor=#66bbff;fontSize=12;fontStyle=1;" parent="85" vertex="1">
                    <mxGeometry y="1" width="140" height="39" relative="1" as="geometry">
                        <mxPoint x="30" y="-100" as="offset"/>
                    </mxGeometry>
                </mxCell>
                <mxCell id="94" value="Esqueci minha senha" style="strokeWidth=1;shadow=0;dashed=0;align=center;html=1;shape=mxgraph.mockup.forms.anchor;fontSize=12;fontColor=#666666;align=left;resizeWidth=1;spacingLeft=0;" parent="85" vertex="1">
                    <mxGeometry x="13" y="240" width="130.00000000000003" height="26.666666666666668" as="geometry"/>
                </mxCell>
                <mxCell id="96" value="" style="verticalLabelPosition=bottom;shadow=0;dashed=0;align=center;html=1;verticalAlign=top;strokeWidth=1;shape=mxgraph.mockup.navigation.scrollBar;strokeColor=#999999;barPos=20;fillColor2=#99ddff;strokeColor2=none;direction=north;" parent="1" vertex="1">
                    <mxGeometry x="890" y="40" width="20" height="400" as="geometry"/>
                </mxCell>
                <mxCell id="98" value="" style="verticalLabelPosition=bottom;shadow=0;dashed=0;align=center;html=1;verticalAlign=top;strokeWidth=1;shape=mxgraph.mockup.graphics.simpleIcon;strokeColor=#999999;fontSize=12;" parent="1" vertex="1">
                    <mxGeometry x="730" y="80" width="60" height="20" as="geometry"/>
                </mxCell>
                <mxCell id="104" value="Ifood - Portal do Parceiro" style="strokeWidth=1;shadow=0;dashed=0;align=center;html=1;shape=mxgraph.mockup.containers.window;align=left;verticalAlign=top;spacingLeft=8;strokeColor2=#008cff;strokeColor3=#c4c4c4;fontColor=#666666;mainText=;fontSize=17;labelBackgroundColor=none;" parent="1" vertex="1">
                    <mxGeometry x="380" y="460" width="530" height="450" as="geometry"/>
                </mxCell>
                <mxCell id="105" value="" style="verticalLabelPosition=bottom;shadow=0;dashed=0;align=center;html=1;verticalAlign=top;strokeWidth=1;shape=mxgraph.mockup.navigation.scrollBar;strokeColor=#999999;barPos=20;fillColor2=#99ddff;strokeColor2=none;direction=north;" parent="1" vertex="1">
                    <mxGeometry x="890" y="490" width="20" height="420" as="geometry"/>
                </mxCell>
                <mxCell id="106" value="" style="rounded=0;whiteSpace=wrap;html=1;fontSize=12;" parent="1" vertex="1">
                    <mxGeometry x="380" y="490" width="510" height="30" as="geometry"/>
                </mxCell>
                <mxCell id="107" value="" style="verticalLabelPosition=bottom;shadow=0;dashed=0;align=center;html=1;verticalAlign=top;strokeWidth=1;shape=mxgraph.mockup.graphics.simpleIcon;strokeColor=#999999;fontSize=12;" parent="1" vertex="1">
                    <mxGeometry x="400" y="495" width="60" height="20" as="geometry"/>
                </mxCell>
                <mxCell id="108" value="Nome Loja" style="strokeWidth=1;shadow=0;dashed=0;align=center;html=1;shape=mxgraph.mockup.forms.anchor;fontSize=12;fontColor=#666666;align=left;resizeWidth=1;spacingLeft=0;" parent="1" vertex="1">
                    <mxGeometry x="595" y="555.5" width="100" height="20" as="geometry"/>
                </mxCell>
                <mxCell id="109" value="" style="shape=line;strokeColor=#ddeeff;strokeWidth=2;html=1;resizeWidth=1;" parent="1" vertex="1">
                    <mxGeometry x="555" y="575.5" width="180" height="10" as="geometry"/>
                </mxCell>
                <mxCell id="110" value="CEP" style="strokeWidth=1;shadow=0;dashed=0;align=center;html=1;shape=mxgraph.mockup.forms.anchor;fontSize=12;fontColor=#666666;align=left;resizeWidth=1;spacingLeft=0;" parent="1" vertex="1">
                    <mxGeometry x="490" y="595.5" width="100" height="20" as="geometry"/>
                </mxCell>
                <mxCell id="111" value="00000-000" style="strokeWidth=1;shadow=0;dashed=0;align=center;html=1;shape=mxgraph.mockup.forms.rrect;rSize=0;strokeColor=#999999;fontColor=#666666;align=left;spacingLeft=5;resizeWidth=1;" parent="1" vertex="1">
                    <mxGeometry x="490" y="615.5" width="150" height="25" as="geometry"/>
                </mxCell>
                <mxCell id="112" value="Estado" style="strokeWidth=1;shadow=0;dashed=0;align=center;html=1;shape=mxgraph.mockup.forms.anchor;fontSize=12;fontColor=#666666;align=left;resizeWidth=1;spacingLeft=0;" parent="1" vertex="1">
                    <mxGeometry x="490" y="640.5" width="100" height="20" as="geometry"/>
                </mxCell>
                <mxCell id="113" value="SÃ£o Paulo" style="strokeWidth=1;shadow=0;dashed=0;align=center;html=1;shape=mxgraph.mockup.forms.rrect;rSize=0;strokeColor=#999999;fontColor=#666666;align=left;spacingLeft=5;resizeWidth=1;" parent="1" vertex="1">
                    <mxGeometry x="490" y="660.5" width="150" height="25" as="geometry"/>
                </mxCell>
                <mxCell id="114" value="" style="shape=line;strokeColor=#ddeeff;strokeWidth=2;html=1;resizeWidth=1;" parent="1" vertex="1">
                    <mxGeometry x="555" y="830" width="180" height="10" as="geometry"/>
                </mxCell>
                <mxCell id="115" value="Editar" style="strokeWidth=1;shadow=0;dashed=0;align=center;html=1;shape=mxgraph.mockup.forms.rrect;rSize=5;strokeColor=none;fontColor=#ffffff;fillColor=#66bbff;fontSize=12;fontStyle=1;" parent="1" vertex="1">
                    <mxGeometry x="490" y="851" width="140" height="39" as="geometry"/>
                </mxCell>
                <mxCell id="116" value="Bairro" style="strokeWidth=1;shadow=0;dashed=0;align=center;html=1;shape=mxgraph.mockup.forms.anchor;fontSize=12;fontColor=#666666;align=left;resizeWidth=1;spacingLeft=0;" parent="1" vertex="1">
                    <mxGeometry x="490" y="685.5" width="100" height="20" as="geometry"/>
                </mxCell>
                <mxCell id="117" value="Bairro" style="strokeWidth=1;shadow=0;dashed=0;align=center;html=1;shape=mxgraph.mockup.forms.rrect;rSize=0;strokeColor=#999999;fontColor=#666666;align=left;spacingLeft=5;resizeWidth=1;" parent="1" vertex="1">
                    <mxGeometry x="490" y="705.5" width="150" height="25" as="geometry"/>
                </mxCell>
                <mxCell id="118" value="Cidade" style="strokeWidth=1;shadow=0;dashed=0;align=center;html=1;shape=mxgraph.mockup.forms.anchor;fontSize=12;fontColor=#666666;align=left;resizeWidth=1;spacingLeft=0;" parent="1" vertex="1">
                    <mxGeometry x="650" y="640.5" width="100" height="20" as="geometry"/>
                </mxCell>
                <mxCell id="119" value="SÃ£o Paulo" style="strokeWidth=1;shadow=0;dashed=0;align=center;html=1;shape=mxgraph.mockup.forms.rrect;rSize=0;strokeColor=#999999;fontColor=#666666;align=left;spacingLeft=5;resizeWidth=1;" parent="1" vertex="1">
                    <mxGeometry x="650" y="660.5" width="150" height="25" as="geometry"/>
                </mxCell>
                <mxCell id="120" value="EndereÃ§o" style="strokeWidth=1;shadow=0;dashed=0;align=center;html=1;shape=mxgraph.mockup.forms.anchor;fontSize=12;fontColor=#666666;align=left;resizeWidth=1;spacingLeft=0;" parent="1" vertex="1">
                    <mxGeometry x="490" y="730.5" width="100" height="20" as="geometry"/>
                </mxCell>
                <mxCell id="121" value="Rua etc" style="strokeWidth=1;shadow=0;dashed=0;align=center;html=1;shape=mxgraph.mockup.forms.rrect;rSize=0;strokeColor=#999999;fontColor=#666666;align=left;spacingLeft=5;resizeWidth=1;" parent="1" vertex="1">
                    <mxGeometry x="490" y="750.5" width="150" height="25" as="geometry"/>
                </mxCell>
                <mxCell id="122" value="NÃºmero" style="strokeWidth=1;shadow=0;dashed=0;align=center;html=1;shape=mxgraph.mockup.forms.anchor;fontSize=12;fontColor=#666666;align=left;resizeWidth=1;spacingLeft=0;" parent="1" vertex="1">
                    <mxGeometry x="490" y="775.5" width="100" height="20" as="geometry"/>
                </mxCell>
                <mxCell id="123" value="SÃ£o Paulo" style="strokeWidth=1;shadow=0;dashed=0;align=center;html=1;shape=mxgraph.mockup.forms.rrect;rSize=0;strokeColor=#999999;fontColor=#666666;align=left;spacingLeft=5;resizeWidth=1;" parent="1" vertex="1">
                    <mxGeometry x="490" y="795.5" width="150" height="25" as="geometry"/>
                </mxCell>
                <mxCell id="124" value="Complemento" style="strokeWidth=1;shadow=0;dashed=0;align=center;html=1;shape=mxgraph.mockup.forms.anchor;fontSize=12;fontColor=#666666;align=left;resizeWidth=1;spacingLeft=0;" parent="1" vertex="1">
                    <mxGeometry x="650" y="775.5" width="100" height="20" as="geometry"/>
                </mxCell>
                <mxCell id="125" value="SÃ£o Paulo" style="strokeWidth=1;shadow=0;dashed=0;align=center;html=1;shape=mxgraph.mockup.forms.rrect;rSize=0;strokeColor=#999999;fontColor=#666666;align=left;spacingLeft=5;resizeWidth=1;" parent="1" vertex="1">
                    <mxGeometry x="650" y="795.5" width="150" height="25" as="geometry"/>
                </mxCell>
                <mxCell id="127" value="Deletar" style="strokeWidth=1;shadow=0;dashed=0;align=center;html=1;shape=mxgraph.mockup.forms.rrect;rSize=5;strokeColor=none;fontColor=#ffffff;fillColor=#66bbff;fontSize=12;fontStyle=1;" parent="1" vertex="1">
                    <mxGeometry x="640" y="851" width="140" height="39" as="geometry"/>
                </mxCell>
                <mxCell id="128" value="Ifood - Admin" style="strokeWidth=1;shadow=0;dashed=0;align=center;html=1;shape=mxgraph.mockup.containers.window;align=left;verticalAlign=top;spacingLeft=8;strokeColor2=#008cff;strokeColor3=#c4c4c4;fontColor=#666666;mainText=;fontSize=17;labelBackgroundColor=none;" parent="1" vertex="1">
                    <mxGeometry x="-170" y="930" width="530" height="450" as="geometry"/>
                </mxCell>
                <mxCell id="129" value="" style="verticalLabelPosition=bottom;shadow=0;dashed=0;align=center;html=1;verticalAlign=top;strokeWidth=1;shape=mxgraph.mockup.navigation.scrollBar;strokeColor=#999999;barPos=20;fillColor2=#99ddff;strokeColor2=none;direction=north;" parent="1" vertex="1">
                    <mxGeometry x="340" y="960" width="20" height="420" as="geometry"/>
                </mxCell>
                <mxCell id="132" value="EndereÃ§o da loja" style="strokeWidth=1;shadow=0;dashed=0;align=center;html=1;shape=mxgraph.mockup.forms.anchor;fontSize=12;fontColor=#666666;align=left;resizeWidth=1;spacingLeft=0;" parent="1" vertex="1">
                    <mxGeometry x="45" y="1025.5" width="100" height="20" as="geometry"/>
                </mxCell>
                <mxCell id="133" value="" style="shape=line;strokeColor=#ddeeff;strokeWidth=2;html=1;resizeWidth=1;" parent="1" vertex="1">
                    <mxGeometry x="5" y="1045.5" width="180" height="10" as="geometry"/>
                </mxCell>
                <mxCell id="138" value="" style="shape=line;strokeColor=#ddeeff;strokeWidth=2;html=1;resizeWidth=1;" parent="1" vertex="1">
                    <mxGeometry x="5" y="1300" width="180" height="10" as="geometry"/>
                </mxCell>
                <mxCell id="139" value="Continuar" style="strokeWidth=1;shadow=0;dashed=0;align=center;html=1;shape=mxgraph.mockup.forms.rrect;rSize=5;strokeColor=none;fontColor=#ffffff;fillColor=#66bbff;fontSize=12;fontStyle=1;" parent="1" vertex="1">
                    <mxGeometry x="25" y="1321" width="140" height="39" as="geometry"/>
                </mxCell>
                <mxCell id="152" value="&lt;table border=&quot;1&quot; width=&quot;100%&quot; style=&quot;width: 100% ; height: 100% ; border-collapse: collapse&quot;&gt;&lt;tbody&gt;&lt;tr&gt;&lt;td align=&quot;center&quot;&gt;Nome Restaurante&lt;/td&gt;&lt;td align=&quot;center&quot;&gt;Editar&lt;/td&gt;&lt;td align=&quot;center&quot;&gt;Deletar&lt;/td&gt;&lt;/tr&gt;&lt;tr&gt;&lt;td align=&quot;center&quot;&gt;Nome Restaurante&lt;/td&gt;&lt;td align=&quot;center&quot;&gt;Editar&lt;/td&gt;&lt;td align=&quot;center&quot;&gt;Deletar&lt;/td&gt;&lt;/tr&gt;&lt;tr&gt;&lt;td align=&quot;center&quot;&gt;Nome Restaurante&lt;/td&gt;&lt;td align=&quot;center&quot;&gt;Editar&lt;/td&gt;&lt;td align=&quot;center&quot;&gt;Deletar&lt;/td&gt;&lt;/tr&gt;&lt;/tbody&gt;&lt;/table&gt;" style="text;html=1;strokeColor=none;fillColor=none;overflow=fill;fontSize=9;" parent="1" vertex="1">
                    <mxGeometry y="1090" width="180" height="140" as="geometry"/>
                </mxCell>
                <mxCell id="153" value="Exportar" style="strokeWidth=1;shadow=0;dashed=0;align=center;html=1;shape=mxgraph.mockup.forms.rrect;rSize=5;strokeColor=none;fontColor=#ffffff;fillColor=#66bbff;fontSize=12;fontStyle=1;" parent="1" vertex="1">
                    <mxGeometry x="110" y="1240" width="70" height="30" as="geometry"/>
                </mxCell>
                <mxCell id="154" value="" style="strokeWidth=1;shadow=0;dashed=0;align=center;html=1;shape=mxgraph.mockup.forms.rrect;rSize=0;strokeColor=#999999;fontSize=9;" vertex="1" parent="1">
                    <mxGeometry x="810" y="490" width="80" height="30" as="geometry"/>
                </mxCell>
                <mxCell id="157" value="&lt;span style=&quot;font-size: 12px&quot;&gt;Sair&lt;/span&gt;" style="strokeColor=inherit;fillColor=inherit;gradientColor=inherit;strokeWidth=1;shadow=0;dashed=0;align=center;html=1;shape=mxgraph.mockup.forms.rrect;rSize=0;fontSize=17;fontColor=#666666;" vertex="1" parent="154">
                    <mxGeometry width="79.20761904761903" height="30" as="geometry"/>
                </mxCell>
            </root>
        </mxGraphModel>
    </diagram>
</mxfile>